<svg fill="#000000" xmlns="http://www.w3.org/2000/svg"  viewBox="0 0 32 32" width="32px" height="32px"><path fill="#000000" d="M16.1,26.9l0.5,0.8l0.3-0.6l0.3,0.4V29c1.1-0.4,1.1-3.4,1.3-4.9c0.2-1.6,0-4.7,4.1-7.6 c-0.4-1.2-0.6-2.5-0.1-4.1c1.4,0.2,2.7,0.5,3.2,2.7l-1.5,0.4c0.6,1.2,0.9,2.4,0.7,3.7l-1.4-0.4L23,20.6l-0.9-0.4l-0.4,1.7l-1-0.4 l1.3,1.1l0.4-1.4l1.2,0.3l0.4-1.8l1.3,0.7c0-1,0.4-2.9-0.4-4.3l1.3,0.3c0.2-1.1-0.1-2-0.4-2.9L27,14c0-1.3-1.5-2.9-3.1-3 c-1-0.1-2.9-1.3-2.7-2.6c0.1-1,0.8-2.2,2.1-2.5c-2.2,1.9-0.5,3.4,0.3,3.7c0.2-0.6,0.9-3.5,0-6.6c-2,1.2-4.4,3.3-4.6,7.5l-2.8,1.8 L16,17l5.2-2.8l0.4,0.4l-0.9,0.2l-2.2,2l-0.8-0.3l-1.4,2.5L16.1,25l1.1,0.8l-1.6,0.8l-1.6-0.8l1.1-0.8l-0.2-6.1l-1.4-2.5l-0.8,0.3 l-2.2-2l-0.9-0.2l0.4-0.4L15,17l-0.2-4.7L12,10.5C11.8,6.3,9.5,4.2,7.4,3c-0.9,3.1-0.2,6,0,6.6c0.8-0.3,2.5-1.9,0.3-3.7 c1.3,0.4,2,1.5,2.1,2.5C10,9.8,8.1,11,7.1,11C5.5,11.1,4,12.7,4,14l1.1-0.5c-0.3,0.9-0.6,1.8-0.4,2.9l1.3-0.3 c-0.8,1.3-0.5,3.3-0.4,4.3l1.3-0.7l0.4,1.8l1.2-0.3L9,22.7l1.3-1.1l-1,0.4l-0.4-1.7L8,20.6l-0.3-1.7l-1.4,0.4 c-0.2-1.3,0.1-2.5,0.7-3.7l-1.5-0.4c0.5-2.2,1.8-2.6,3.2-2.7c0.5,1.6,0.3,2.9-0.1,4.1c4.1,2.9,3.9,6,4.1,7.6 c0.2,1.5,0.2,4.5,1.3,4.9v-1.5l0.3-0.4l0.3,0.6l0.5-0.8l0.6,1.1L16.1,26.9L16.1,26.9z M20.1,22.1l-0.8-0.5c0.4-0.2,0.7-0.4,1-0.6 C20.2,21.3,20.2,21.7,20.1,22.1L20.1,22.1z M21.5,19.6c0,0.6,0,1.1-0.1,1.6c-0.4-0.1-0.8-0.2-1.1-0.4C20.7,20.5,21.1,20,21.5,19.6 L21.5,19.6z M22.7,19.9c0-0.7-0.1-1.2-0.3-1.7c-0.3,0.5-0.6,0.9-0.9,1.4L22.7,19.9z M22.9,15.8c1,0.7,1.4,1.7,1.5,2.9 c-0.6-0.2-1.2-0.5-1.9-0.5C22.8,17.5,22.9,16.7,22.9,15.8L22.9,15.8z M22.8,13.5c0,0.7,0.1,1.5,0.1,2.1c1-0.4,1.5-0.5,2.2-0.7 C24.6,13.9,23.8,13.6,22.8,13.5L22.8,13.5z M10.9,22.1l0.8-0.5c-0.4-0.2-0.7-0.4-1-0.6C10.8,21.3,10.8,21.7,10.9,22.1L10.9,22.1z M9.5,19.6c0,0.6,0,1.1,0.1,1.6c0.4-0.1,0.8-0.2,1.1-0.4C10.3,20.5,9.9,20,9.5,19.6z M8.3,19.9c0-0.7,0.1-1.2,0.3-1.7 c0.3,0.5,0.6,0.9,0.9,1.4L8.3,19.9z M8.1,15.8c-1,0.7-1.4,1.7-1.5,2.9c0.6-0.2,1.2-0.5,1.9-0.5C8.2,17.5,8.1,16.7,8.1,15.8 L8.1,15.8z M8.2,13.5c0,0.7-0.1,1.5-0.1,2.1c-1-0.4-1.5-0.5-2.2-0.7C6.4,13.9,7.3,13.6,8.2,13.5z"/></svg>